<svg width="724" height="754" viewBox="0 0 724 754" fill="none" xmlns="http://www.w3.org/2000/svg">
<path fill-rule="evenodd" clip-rule="evenodd" d="M232.572 232.428L310 155L232.572 77.5718L155.144 155L77.7154 77.5718L0.287209 155L77.7154 232.428L155.144 155L232.572 232.428Z" fill="#F1F1F1"/>
<path fill-rule="evenodd" clip-rule="evenodd" d="M501.572 676.428L579 599L501.572 521.572L424.144 599L346.715 521.572L269.287 599L346.715 676.428L424.144 599L501.572 676.428Z" fill="#F1F1F1"/>
<path d="M347.572 350.693L422.879 426L347.572 501.307L272.265 426L347.572 350.693ZM268.022 426L192.715 501.307L117.409 426L192.715 350.693L268.022 426Z" stroke="#F1F1F1" stroke-width="3"/>
<path d="M671.572 350.693L746.879 426L671.572 501.307L596.265 426L671.572 350.693ZM592.022 426L516.715 501.307L441.409 426L516.715 350.693L592.022 426Z" stroke="#F1F1F1" stroke-width="3"/>
<path fill-rule="evenodd" clip-rule="evenodd" d="M449.572 360.428L527 283L449.572 205.572L372.144 283L294.715 205.572L217.287 283L294.715 360.428L372.144 283L449.572 360.428Z" fill="#F1F1F1"/>
<path d="M773.572 207.693L848.879 283L773.572 358.307L698.265 283L773.572 207.693ZM694.022 283L618.715 358.307L543.409 283L618.715 207.693L694.022 283Z" stroke="#F1F1F1" stroke-width="3"/>
</svg>
