<svg width="16" height="16" viewBox="0 0 16 16" fill="none" xmlns="http://www.w3.org/2000/svg">
<path d="M1 14.25C1 14.4489 1.07902 14.6397 1.21967 14.7803C1.36032 14.921 1.55109 15 1.75 15H14.25C14.4489 15 14.6397 14.921 14.7803 14.7803C14.921 14.6397 15 14.4489 15 14.25V5.5H1V14.25ZM11 6.62467C11.0002 6.59154 11.0135 6.55983 11.0369 6.53647C11.0604 6.51311 11.0922 6.5 11.1253 6.5H12.3753C12.4085 6.50018 12.4402 6.51346 12.4635 6.53694C12.4869 6.56043 12.5 6.59221 12.5 6.62533V7.87467C12.5 7.90791 12.4868 7.93979 12.4633 7.96329C12.4398 7.9868 12.4079 8 12.3747 8H11.1247C11.0915 7.99982 11.0598 7.98654 11.0365 7.96306C11.0131 7.93957 11 7.90779 11 7.87467V6.62467ZM11 9.12467C11.0002 9.09154 11.0135 9.05983 11.0369 9.03647C11.0604 9.01311 11.0922 9 11.1253 9H12.3753C12.4085 9.00018 12.4402 9.01346 12.4635 9.03694C12.4869 9.06043 12.5 9.09221 12.5 9.12533V10.3747C12.5 10.4079 12.4868 10.4398 12.4633 10.4633C12.4398 10.4868 12.4079 10.5 12.3747 10.5H11.1247C11.0915 10.4998 11.0598 10.4865 11.0365 10.4631C11.0131 10.4396 11 10.4078 11 10.3747V9.12467ZM8.5 6.62467C8.50018 6.59154 8.51346 6.55983 8.53694 6.53647C8.56043 6.51311 8.59221 6.5 8.62533 6.5H9.87467C9.90791 6.5 9.93979 6.5132 9.96329 6.53671C9.9868 6.56021 10 6.59209 10 6.62533V7.87467C10 7.90791 9.9868 7.93979 9.96329 7.96329C9.93979 7.9868 9.90791 8 9.87467 8H8.62533C8.59209 8 8.56021 7.9868 8.53671 7.96329C8.51321 7.93979 8.5 7.90791 8.5 7.87467V6.62467ZM8.5 9.12467C8.50018 9.09154 8.51346 9.05983 8.53694 9.03647C8.56043 9.01311 8.59221 9 8.62533 9H9.87467C9.90791 9 9.93979 9.01321 9.96329 9.03671C9.9868 9.06021 10 9.09209 10 9.12533V10.3747C10 10.4079 9.9868 10.4398 9.96329 10.4633C9.93979 10.4868 9.90791 10.5 9.87467 10.5H8.62533C8.59209 10.5 8.56021 10.4868 8.53671 10.4633C8.51321 10.4398 8.5 10.4079 8.5 10.3747V9.12467ZM8.5 11.6247C8.50018 11.5915 8.51346 11.5598 8.53694 11.5365C8.56043 11.5131 8.59221 11.5 8.62533 11.5H9.87467C9.90791 11.5 9.93979 11.5132 9.96329 11.5367C9.9868 11.5602 10 11.5921 10 11.6253V12.8753C9.99982 12.9085 9.98654 12.9402 9.96306 12.9635C9.93957 12.9869 9.90779 13 9.87467 13H8.62533C8.59209 13 8.56021 12.9868 8.53671 12.9633C8.51321 12.9398 8.5 12.9079 8.5 12.8747V11.6247ZM6 9.12533C6.00018 9.09221 6.01346 9.0605 6.03694 9.03714C6.06043 9.01378 6.09221 9.00067 6.12533 9.00067H7.37467C7.39113 9.00067 7.40742 9.00391 7.42263 9.01021C7.43784 9.01651 7.45165 9.02574 7.46329 9.03738C7.47493 9.04901 7.48416 9.06283 7.49046 9.07804C7.49676 9.09324 7.5 9.10954 7.5 9.126V10.3753C7.5 10.3918 7.49676 10.4081 7.49046 10.4233C7.48416 10.4385 7.47493 10.4523 7.46329 10.464C7.45165 10.4756 7.43784 10.4848 7.42263 10.4911C7.40742 10.4974 7.39113 10.5007 7.37467 10.5007H6.12533C6.10882 10.5007 6.09247 10.4974 6.07722 10.4911C6.06197 10.4847 6.04812 10.4754 6.03647 10.4637C6.02483 10.452 6.01561 10.4381 6.00935 10.4228C6.00309 10.4076 5.99991 10.3912 6 10.3747V9.12533ZM6 11.6253C6.00018 11.5922 6.01346 11.5605 6.03694 11.5371C6.06043 11.5138 6.09221 11.5007 6.12533 11.5007H7.37467C7.39113 11.5007 7.40742 11.5039 7.42263 11.5102C7.43784 11.5165 7.45165 11.5257 7.46329 11.5374C7.47493 11.549 7.48416 11.5628 7.49046 11.578C7.49676 11.5932 7.5 11.6095 7.5 11.626V12.876C7.49982 12.9091 7.48654 12.9408 7.46306 12.9642C7.43957 12.9876 7.40779 13.0007 7.37467 13.0007H6.12533C6.10882 13.0007 6.09247 12.9974 6.07722 12.9911C6.06197 12.9847 6.04812 12.9754 6.03647 12.9637C6.02483 12.952 6.01561 12.9381 6.00935 12.9228C6.00309 12.9076 5.99991 12.8912 6 12.8747V11.6253ZM3.5 9.12533C3.50018 9.09221 3.51346 9.0605 3.53694 9.03714C3.56043 9.01378 3.59221 9.00067 3.62533 9.00067H4.87533C4.90846 9.00084 4.94017 9.01413 4.96353 9.03761C4.98689 9.0611 5 9.09288 5 9.126V10.3753C5 10.4086 4.9868 10.4405 4.96329 10.464C4.93979 10.4875 4.90791 10.5007 4.87467 10.5007H3.62533C3.59221 10.5005 3.5605 10.4872 3.53714 10.4637C3.51378 10.4402 3.50067 10.4085 3.50067 10.3753V9.126L3.5 9.12533ZM3.5 11.6253C3.50018 11.5922 3.51346 11.5605 3.53694 11.5371C3.56043 11.5138 3.59221 11.5007 3.62533 11.5007H4.87533C4.90846 11.5008 4.94017 11.5141 4.96353 11.5376C4.98689 11.5611 5 11.5929 5 11.626V12.876C4.99982 12.9091 4.98654 12.9408 4.96306 12.9642C4.93957 12.9876 4.90779 13.0007 4.87467 13.0007H3.62533C3.59221 13.0005 3.5605 12.9872 3.53714 12.9637C3.51378 12.9402 3.50067 12.9085 3.50067 12.8753L3.5 11.6253Z" fill="#171717"/>
<path d="M14.25 2H12.5027V1H11.0027V2H4.99733V1H3.49733V2H1.75C1.6519 1.99921 1.55462 2.01782 1.46375 2.05478C1.37288 2.09173 1.29021 2.14629 1.2205 2.21531C1.1508 2.28433 1.09543 2.36646 1.05759 2.45697C1.01974 2.54747 1.00017 2.64457 1 2.74267V4.5H15V2.74267C14.9997 2.64459 14.9801 2.54754 14.9422 2.45707C14.9044 2.36661 14.849 2.28452 14.7793 2.21551C14.7096 2.1465 14.627 2.09194 14.5361 2.05496C14.4453 2.01797 14.3481 1.9993 14.25 2Z" fill="#171717"/>
</svg>
